<svg width="16" height="16" viewBox="0 0 16 16" fill="none" xmlns="http://www.w3.org/2000/svg">
<path d="M9.61035 4.34375V6.87514L10.495 7.43218C10.5184 7.43901 10.569 7.4395 10.5923 7.43218L14.3997 4.86531C14.3997 4.56148 14.1163 4.34375 13.9564 4.34375H9.61035Z" fill="#FBAE17"/>
<path d="M9.61016 7.8196L10.4176 8.37416C10.5313 8.45778 10.6684 8.37416 10.6684 8.37416C10.5318 8.45778 14.3999 5.88843 14.3999 5.88843V10.5411C14.3999 11.0475 14.0757 11.26 13.7111 11.26H9.60967V7.8196H9.61016ZM5.42997 6.65253C5.1548 6.65253 4.93558 6.78181 4.77368 7.03998C4.61178 7.29816 4.53076 7.63971 4.53076 8.06512C4.53076 8.49673 4.6119 8.83791 4.7738 9.08864C4.93558 9.33999 5.14798 9.46493 5.41049 9.46493C5.6812 9.46493 5.89608 9.34297 6.05451 9.09894C6.21294 8.85491 6.29271 8.51609 6.29271 8.08311C6.29271 7.63152 6.21591 7.28005 6.06183 7.02882C5.90774 6.77796 5.69733 6.65253 5.42997 6.65253Z" fill="#FBAE17"/>
<path d="M1.6001 3.05822V12.9617L9.13409 14.5414V1.59998L1.6001 3.05822ZM6.64154 9.68419C6.32319 10.1032 5.90807 10.3132 5.39582 10.3132C4.89658 10.3132 4.49015 10.11 4.17578 9.70404C3.86177 9.29773 3.70434 8.76898 3.70434 8.11665C3.70434 7.42785 3.86376 6.87081 4.1831 6.44552C4.50244 6.02023 4.92524 5.80734 5.45164 5.80734C5.94889 5.80734 6.35135 6.01055 6.65804 6.41773C6.96522 6.82515 7.11893 7.36185 7.11893 8.02807C7.1193 8.71302 6.95988 9.26523 6.64154 9.68419Z" fill="#FBAE17"/>
</svg>
