<svg width="16" height="16" viewBox="0 0 16 16" fill="currentColor" xmlns="http://www.w3.org/2000/svg">
<path d="M1.60001 2.90371V12.8792L8.93833 14.1829V1.6L1.60001 2.90371ZM5.81715 9.99172L5.20104 8.37534L4.59683 9.90693H3.75561L4.739 7.76994L3.82671 5.6754H4.69163L5.24849 7.12224L5.91196 5.55432L6.74133 5.51193L5.70464 7.75184L6.78282 10.0643L5.81715 9.99172ZM14.1449 2.89228H9.1868V3.62083H11.0533V4.93457H9.1868V5.32963H11.0533V6.64337H9.1868V7.03847H11.0533V8.35221H9.1868V8.74725H11.0533V10.061H9.1868V10.4643H11.0533V11.778H9.1868V12.6211H14.1449C14.2852 12.6211 14.4 12.5028 14.4 12.3582V3.15516C14.4 3.01056 14.2852 2.89228 14.1449 2.89228ZM13.5406 11.778H11.4378V10.4643H13.5406V11.778ZM13.5406 10.061H11.4378V8.74725H13.5406V10.061ZM13.5406 8.35221H11.4378V7.03847H13.5406V8.35221ZM13.5406 6.64337H11.4378V5.32963H13.5406V6.64337ZM13.5406 4.93457H11.4378V3.62083H13.5406V4.93457Z" />
</svg>
