<svg width="16" height="16" viewBox="0 0 16 16" fill="currentColor" xmlns="http://www.w3.org/2000/svg">
<path d="M5.02331 7.19569C4.89402 7.19759 4.81115 7.21047 4.76221 7.22311V8.93625C4.81104 8.94878 4.89049 8.9502 4.96227 8.95163C5.49091 8.96571 5.84193 8.67099 5.84193 8.03223C5.84572 7.47671 5.5262 7.18802 5.02331 7.19569Z" fill="#BB0706"/>
<path d="M9.46359 13.7585C9.48102 13.7594 9.49866 13.761 9.51654 13.761H13.5454C14.0166 13.761 14.4 13.3775 14.4 12.9063V3.56681C14.4 3.09569 14.0166 2.71221 13.5454 2.71221H9.51654C9.49877 2.71221 9.48102 2.71395 9.46359 2.71476V1.6L1.6 2.64942V13.8308L9.46359 14.9074V13.7585ZM13.5454 13.2728H9.51654C9.49852 13.2728 9.48102 13.27 9.46359 13.2674V9.60297C10.3031 9.45789 11.4688 9.34808 12.4771 9.58497L12.5965 9.81637C13.0778 10.7264 13.5919 10.7205 13.7905 10.6756C13.8361 10.6654 13.8606 10.654 13.8606 10.654L13.8873 10.6398C13.8964 10.634 13.9034 10.6268 13.9116 10.6206V12.9066C13.9116 13.1084 13.7474 13.2728 13.5454 13.2728ZM9.8053 9.16864C10.4362 8.39918 10.946 7.68083 11.2744 7.19434L11.2756 7.19703L11.2792 7.19154C11.5369 7.73496 11.9618 8.5755 12.2544 9.14922L12.2535 9.14897L12.2635 9.16818C11.4315 9.02607 10.5382 9.07793 9.8034 9.17951L9.81414 9.16699L9.8053 9.16864ZM11.2894 5.57816C11.3147 5.53358 11.3517 5.52178 11.4179 5.52469C11.4191 5.52481 11.5508 5.53344 11.5999 5.62361C11.6297 5.6773 11.6729 5.84761 11.4406 6.26293H11.4404C11.4404 6.26293 11.4103 6.3129 11.3538 6.40308C11.2236 5.94587 11.2322 5.67888 11.2894 5.57816ZM12.9695 9.73485C13.2082 9.82666 13.4226 9.93979 13.6102 10.0735C13.6641 10.1501 13.714 10.2603 13.7049 10.3122C13.7046 10.3149 13.7038 10.3174 13.7025 10.3198C13.6255 10.334 13.3191 10.3435 12.9695 9.73485ZM9.51654 3.20064H13.5454C13.7474 3.20064 13.9116 3.36501 13.9116 3.5669V9.86598C13.9029 9.85336 13.8939 9.84099 13.8845 9.8289L13.8689 9.80884L13.8487 9.79383C13.5361 9.56562 13.1593 9.38977 12.7277 9.27092C12.42 8.67003 11.7828 7.4176 11.5149 6.83109C11.67 6.59216 11.7533 6.45289 11.7571 6.44652C11.9988 6.01569 12.0516 5.67936 11.918 5.44211C11.7968 5.22737 11.5555 5.16287 11.4323 5.15877C11.2329 5.14971 11.0629 5.23497 10.9706 5.39734C10.8299 5.64527 10.859 6.07956 11.0579 6.6873C11.0667 6.71538 11.0809 6.75137 11.0996 6.79668C10.781 7.27851 10.2031 8.11191 9.4635 9.00705V3.20602C9.48102 3.20345 9.49841 3.20064 9.51654 3.20064ZM3.61418 8.17813C3.42825 8.36257 3.15493 8.44306 2.83945 8.44019C2.77006 8.43949 2.70735 8.43519 2.6589 8.42732V9.32484L2.14247 9.31053V6.86009C2.302 6.82688 2.52774 6.7993 2.84994 6.79148C3.17917 6.78343 3.41762 6.84578 3.57841 6.97861C3.73346 7.10474 3.83807 7.31679 3.83807 7.5684C3.83807 7.82026 3.75849 8.0338 3.61418 8.17813ZM6.03868 9.09961C5.75976 9.32719 5.3405 9.4264 4.83737 9.41233C4.54097 9.40386 4.33304 9.37894 4.19289 9.35581V6.81271C4.39981 6.7733 4.67192 6.74741 4.96238 6.74034C5.45244 6.72835 5.77527 6.81176 6.03111 7.00119C6.3089 7.20422 6.48518 7.53474 6.48518 8.01282C6.48518 8.53103 6.29705 8.88524 6.03868 9.09961ZM6.89103 6.71393L8.62832 6.67244V7.19484L7.52328 7.21087V7.84144L8.55486 7.83889V8.35626L7.52328 8.34912V9.45911L6.89084 9.44168V6.71395H6.89103V6.71393Z" />
<path d="M2.87781 7.22099C2.76996 7.22266 2.69712 7.23487 2.65889 7.24674V7.98778C2.70365 7.99904 2.75922 8.00282 2.836 8.00282C3.11976 8.00304 3.29638 7.84824 3.29638 7.58808C3.29641 7.35402 3.14434 7.21669 2.87781 7.22099Z" />
</svg>
