<svg width="16" height="16" viewBox="0 0 16 16" fill="currentColor" xmlns="http://www.w3.org/2000/svg">
<path d="M10.5067 4.49475V6.27652H12.2402C12.2402 5.29256 11.4642 4.49475 10.5067 4.49475Z"/>
<path d="M13.9798 2.95896H8.91928V1.60001L1.60001 2.90544V12.8032L8.91928 14.1087V12.4618H13.9798C14.2115 12.4618 14.4 12.2679 14.4 12.0297V3.39085C14.4 3.15256 14.2115 2.95884 13.9798 2.95884V2.95896ZM6.35146 7.56835C6.24058 8.05725 5.93377 8.40118 5.45011 8.52218C5.20926 8.58233 4.95143 8.57128 4.67639 8.59455V9.98689H3.94339V5.78088C4.50896 5.78088 5.07162 5.7646 5.63231 5.79194C5.7796 5.79915 5.95075 5.91178 6.05954 6.02731C6.47584 6.46909 6.47584 7.01942 6.35158 7.56835H6.35146ZM13.9791 12.0299H8.91928V10.944H12.8649V10.4402H8.91928V9.58828H12.8649V9.08438H8.91928V7.68377C9.23726 8.06702 9.70999 8.31031 10.2383 8.31031C11.1958 8.31031 11.9718 7.5125 11.9718 6.52854H10.2383V4.74689C9.70999 4.74689 9.23714 4.99018 8.91928 5.37331V3.39096H13.9798L13.9791 12.0299Z" />
<path d="M4.69699 6.54449V7.77813C4.98903 7.80117 5.27408 7.85725 5.45151 7.54613C5.58555 7.31134 5.57426 6.88236 5.41882 6.7019C5.21777 6.46863 4.95796 6.5019 4.69699 6.54449Z" />
</svg>
