<svg width="16" height="16" viewBox="0 0 16 16" fill="currentColor" xmlns="http://www.w3.org/2000/svg">
<path d="M14.3855 3.32752C14.4161 2.99598 14.1557 2.73854 13.8242 2.77204C12.2698 2.74726 10.7152 2.77204 9.15929 2.76332V1.60001H8.28972C6.06046 1.99693 3.82981 2.37652 1.60068 2.76623C1.60068 6.15728 1.59917 9.54984 1.60068 12.9423C3.8183 13.3306 6.0372 13.7013 8.2504 14.1056H9.15929V12.9423C10.6149 12.9423 12.0691 12.9394 13.5246 12.9466C13.7718 12.935 14.0466 12.9539 14.259 12.8027C14.4291 12.5425 14.3855 12.2167 14.4 11.9229C14.3796 9.05822 14.4101 6.19218 14.3855 3.32752ZM6.45168 9.82892C6.2089 9.95549 5.84537 9.8231 5.55733 9.84346C5.36399 8.88082 5.13854 7.924 4.96555 6.95694C4.79536 7.89631 4.57445 8.82696 4.37948 9.76052C4.10028 9.74597 3.81969 9.72852 3.53899 9.70968C3.2976 8.43004 3.01398 7.15912 2.78865 5.87657C3.03737 5.86494 3.28748 5.8547 3.53608 5.84597C3.68591 6.77232 3.85599 7.69424 3.98686 8.62187C4.19195 7.67086 4.40135 6.71985 4.60493 5.76885C4.88121 5.75279 5.1575 5.74116 5.43379 5.72662C5.62725 6.70822 5.82501 7.68831 6.03441 8.66549C6.19866 7.65632 6.38049 6.65005 6.55638 5.6424C6.84721 5.63216 7.13804 5.61622 7.42735 5.59877C7.09872 7.00789 6.8108 8.42864 6.45168 9.82892ZM13.9579 12.506H9.15929V11.3427H12.9401V10.7611H9.15929V10.034H12.9401V9.45235H9.15929V8.72529H12.9401V8.14363H9.15929V7.41656H12.9401V6.83491H9.15929V6.10784H12.9401V5.52618H9.15929V4.79911H12.9401V4.21746H9.15929V3.19956H13.9579V12.506Z"/>
</svg>
